<svg width="130" height="46" viewBox="0 0 130 46" fill="none" xmlns="http://www.w3.org/2000/svg">
<rect x="1.10808" y="0.672041" width="128.134" height="43.8452" rx="4.02411" fill="url(#paint0_linear_3068_273)"/>
<rect x="1.10808" y="0.672041" width="128.134" height="43.8452" rx="4.02411" stroke="black" stroke-width="1.14975" style="mix-blend-mode:overlay"/>
<path d="M44.9723 19.7173C44.8951 19.0656 44.5822 18.5598 44.0335 18.1997C43.4847 17.8395 42.8116 17.6595 42.0143 17.6595C41.4312 17.6595 40.9211 17.7538 40.4838 17.9424C40.0508 18.1311 39.7121 18.3904 39.4677 18.7205C39.2277 19.0506 39.1076 19.4258 39.1076 19.8459C39.1076 20.1974 39.1912 20.4997 39.3584 20.7526C39.5299 21.0012 39.7485 21.2092 40.0143 21.3764C40.2801 21.5393 40.5588 21.6743 40.8503 21.7815C41.1418 21.8844 41.4098 21.968 41.6541 22.0323L42.9917 22.3924C43.3347 22.4824 43.7162 22.6067 44.1363 22.7654C44.5608 22.924 44.9659 23.1405 45.3517 23.4149C45.7418 23.6849 46.0634 24.0322 46.3163 24.4566C46.5692 24.881 46.6957 25.4019 46.6957 26.0192C46.6957 26.7309 46.5092 27.3739 46.1363 27.9484C45.7676 28.5229 45.2274 28.9794 44.5157 29.3181C43.8084 29.6568 42.9488 29.8261 41.9371 29.8261C40.9939 29.8261 40.1773 29.6739 39.487 29.3696C38.8011 29.0652 38.2609 28.6408 37.8665 28.0963C37.4764 27.5519 37.2556 26.9195 37.2042 26.1993H38.8504C38.8933 26.6966 39.0605 27.1081 39.352 27.434C39.6478 27.7555 40.0208 27.9956 40.4709 28.1542C40.9253 28.3085 41.4141 28.3857 41.9371 28.3857C42.5458 28.3857 43.0924 28.2871 43.5769 28.0899C44.0613 27.8884 44.445 27.6097 44.728 27.2539C45.0109 26.8938 45.1524 26.4737 45.1524 25.9935C45.1524 25.5562 45.0302 25.2004 44.7858 24.926C44.5415 24.6517 44.2199 24.4287 43.8212 24.2573C43.4225 24.0858 42.9917 23.9357 42.5287 23.8071L40.9082 23.3441C39.8793 23.0483 39.0648 22.626 38.4646 22.0773C37.8644 21.5286 37.5643 20.8105 37.5643 19.9231C37.5643 19.1857 37.7636 18.5426 38.1623 17.9939C38.5653 17.4409 39.1055 17.0121 39.7828 16.7078C40.4645 16.3991 41.2254 16.2448 42.0657 16.2448C42.9145 16.2448 43.6691 16.397 44.3293 16.7013C44.9895 17.0014 45.5125 17.413 45.8983 17.936C46.2884 18.459 46.4942 19.0528 46.5157 19.7173H44.9723ZM49.112 29.5946V19.7173H50.6296V29.5946H49.112ZM49.8837 18.071C49.5879 18.071 49.3328 17.9703 49.1184 17.7688C48.9084 17.5673 48.8033 17.3251 48.8033 17.0422C48.8033 16.7592 48.9084 16.517 49.1184 16.3155C49.3328 16.114 49.5879 16.0133 49.8837 16.0133C50.1795 16.0133 50.4324 16.114 50.6425 16.3155C50.8568 16.517 50.964 16.7592 50.964 17.0422C50.964 17.3251 50.8568 17.5673 50.6425 17.7688C50.4324 17.9703 50.1795 18.071 49.8837 18.071ZM57.3962 33.5044C56.6631 33.5044 56.0329 33.4101 55.5056 33.2215C54.9783 33.0371 54.5389 32.7928 54.1873 32.4884C53.8401 32.1883 53.5636 31.8668 53.3578 31.5238L54.5667 30.675C54.7039 30.855 54.8775 31.0608 55.0876 31.2923C55.2977 31.5281 55.5849 31.7317 55.9493 31.9032C56.318 32.079 56.8003 32.1669 57.3962 32.1669C58.1936 32.1669 58.8516 31.9739 59.3704 31.5881C59.8891 31.2023 60.1485 30.5978 60.1485 29.7747V27.7684H60.0199C59.9084 27.9484 59.7498 28.1713 59.544 28.4371C59.3425 28.6986 59.051 28.9323 58.6694 29.1381C58.2922 29.3396 57.782 29.4403 57.139 29.4403C56.3416 29.4403 55.6256 29.2517 54.9911 28.8744C54.361 28.4972 53.8615 27.9484 53.4928 27.2282C53.1284 26.508 52.9462 25.6334 52.9462 24.6045C52.9462 23.5928 53.1241 22.7118 53.48 21.9615C53.8358 21.207 54.3309 20.624 54.9654 20.2124C55.5999 19.7966 56.333 19.5887 57.1647 19.5887C57.8077 19.5887 58.3179 19.6958 58.6952 19.9102C59.0767 20.1203 59.3682 20.3603 59.5697 20.6304C59.7755 20.8962 59.9341 21.1149 60.0456 21.2863H60.1999V19.7173H61.6661V29.8776C61.6661 30.7264 61.4732 31.4166 61.0873 31.9482C60.7058 32.4841 60.1913 32.8764 59.544 33.125C58.9009 33.378 58.185 33.5044 57.3962 33.5044ZM57.3447 28.077C57.9535 28.077 58.4679 27.9377 58.8881 27.659C59.3082 27.3804 59.6276 26.9795 59.8462 26.4565C60.0649 25.9335 60.1742 25.3076 60.1742 24.5788C60.1742 23.8671 60.067 23.2391 59.8527 22.6946C59.6383 22.1502 59.3211 21.7236 58.9009 21.4149C58.4808 21.1063 57.9621 20.9519 57.3447 20.9519C56.7017 20.9519 56.1658 21.1149 55.7371 21.4407C55.3127 21.7665 54.9933 22.2038 54.7789 22.7525C54.5689 23.3012 54.4638 23.91 54.4638 24.5788C54.4638 25.2647 54.571 25.8713 54.7854 26.3986C55.004 26.9217 55.3255 27.3332 55.75 27.6333C56.1787 27.9291 56.7103 28.077 57.3447 28.077ZM65.9617 23.6528V29.5946H64.4441V19.7173H65.9103V21.2606H66.0389C66.2704 20.759 66.6219 20.356 67.0935 20.0517C67.5651 19.743 68.1738 19.5887 68.9198 19.5887C69.5885 19.5887 70.1737 19.7258 70.6753 20.0002C71.1769 20.2703 71.567 20.6819 71.8457 21.2349C72.1243 21.7836 72.2637 22.4781 72.2637 23.3184V29.5946H70.7461V23.4213C70.7461 22.6453 70.5446 22.0409 70.1416 21.6079C69.7386 21.1706 69.1856 20.9519 68.4825 20.9519C67.9981 20.9519 67.5651 21.057 67.1835 21.267C66.8063 21.4771 66.5083 21.7836 66.2897 22.1866C66.071 22.5896 65.9617 23.0783 65.9617 23.6528ZM81.9304 16.4248V29.5946H80.3356V16.4248H81.9304ZM86.4399 23.6528V29.5946H84.9222V19.7173H86.3884V21.2606H86.517C86.7485 20.759 87.1001 20.356 87.5716 20.0517C88.0432 19.743 88.652 19.5887 89.3979 19.5887C90.0667 19.5887 90.6519 19.7258 91.1535 20.0002C91.6551 20.2703 92.0452 20.6819 92.3238 21.2349C92.6025 21.7836 92.7418 22.4781 92.7418 23.3184V29.5946H91.2242V23.4213C91.2242 22.6453 91.0227 22.0409 90.6197 21.6079C90.2167 21.1706 89.6637 20.9519 88.9606 20.9519C88.4762 20.9519 88.0432 21.057 87.6617 21.267C87.2844 21.4771 86.9865 21.7836 86.7678 22.1866C86.5492 22.5896 86.4399 23.0783 86.4399 23.6528Z" fill="black"/>
<defs>
<linearGradient id="paint0_linear_3068_273" x1="0.533204" y1="22.5946" x2="114.048" y2="22.5946" gradientUnits="userSpaceOnUse">
<stop stop-color="#DDD3EF" stop-opacity="0.55"/>
<stop offset="0.416667" stop-color="#FDD9FF"/>
<stop offset="1" stop-color="#B2E0FE"/>
</linearGradient>
</defs>
</svg>
